
<?xml version="1.0" encoding="UTF-8"?>
<svg width="196px" height="236px" viewBox="0 0 114 137" version="1.1" xmlns="http://www.w3.org/2000/svg" xmlns:xlink="http://www.w3.org/1999/xlink">
    <defs>
        <radialGradient cx="9.70653973%" cy="74.4140065%" fx="9.70653973%" fy="74.4140065%" r="73.8269469%" gradientTransform="translate(0.097065,0.744140),scale(1.000000,0.963390),translate(-0.097065,-0.744140)" id="radialGradient-1">
            <stop stop-color="#D793AE" offset="0%"></stop>
            <stop stop-color="#CF84A3" offset="4.73%"></stop>
            <stop stop-color="#BC6289" offset="18.52%"></stop>
            <stop stop-color="#AD4575" offset="32.86%"></stop>
            <stop stop-color="#A12C66" offset="47.71%"></stop>
            <stop stop-color="#99135C" offset="63.27%"></stop>
            <stop stop-color="#950056" offset="80%"></stop>
            <stop stop-color="#930055" offset="100%"></stop>
        </radialGradient>
        <radialGradient cx="20.8080028%" cy="80.2860185%" fx="20.8080028%" fy="80.2860185%" r="75.4353514%" gradientTransform="translate(0.208080,0.802860),scale(1.000000,0.848179),translate(-0.208080,-0.802860)" id="radialGradient-2">
            <stop stop-color="#F26322" offset="0%"></stop>
            <stop stop-color="#F5841F" offset="30.85%"></stop>
            <stop stop-color="#F99B1C" offset="59.9%"></stop>
            <stop stop-color="#FBAA19" offset="83.94%"></stop>
            <stop stop-color="#FCAF17" offset="100%"></stop>
        </radialGradient>
        <radialGradient cx="53.6582231%" cy="11.8570178%" fx="53.6582231%" fy="11.8570178%" r="82.877627%" gradientTransform="translate(0.536582,0.118570),scale(1.000000,0.732185),translate(-0.536582,-0.118570)" id="radialGradient-3">
            <stop stop-color="#A01B35" offset="0%"></stop>
            <stop stop-color="#A01B36" offset="18.36%"></stop>
            <stop stop-color="#A11A3A" offset="33.72%"></stop>
            <stop stop-color="#A41840" offset="48.01%"></stop>
            <stop stop-color="#A71647" offset="61.64%"></stop>
            <stop stop-color="#AB1251" offset="74.82%"></stop>
            <stop stop-color="#B00A5D" offset="87.47%"></stop>
            <stop stop-color="#B6006A" offset="99.8%"></stop>
            <stop stop-color="#B6006A" offset="100%"></stop>
        </radialGradient>
        <radialGradient cx="-4711.48357%" cy="663.651007%" fx="-4711.48357%" fy="663.651007%" r="9445.55705%" gradientTransform="translate(-47.114836,6.636510),scale(0.699531,1.000000),translate(47.114836,-6.636510)" id="radialGradient-4">
            <stop stop-color="#FCAF17" offset="0%"></stop>
            <stop stop-color="#FAA21B" offset="7.73%"></stop>
            <stop stop-color="#F78C1E" offset="23.85%"></stop>
            <stop stop-color="#F47B20" offset="40.69%"></stop>
            <stop stop-color="#F36E21" offset="58.33%"></stop>
            <stop stop-color="#F26622" offset="77.31%"></stop>
            <stop stop-color="#F26322" offset="100%"></stop>
        </radialGradient>
        <radialGradient cx="-4431.23944%" cy="2424.71141%" fx="-4431.23944%" fy="2424.71141%" r="7995.97315%" gradientTransform="translate(-44.312394,24.247114),scale(0.699531,1.000000),translate(44.312394,-24.247114)" id="radialGradient-5">
            <stop stop-color="#F26322" offset="0%"></stop>
            <stop stop-color="#FCAF17" offset="100%"></stop>
        </radialGradient>
        <radialGradient cx="49.9994961%" cy="49.992055%" fx="49.9994961%" fy="49.992055%" r="72.1895776%" gradientTransform="translate(0.499995,0.499921),scale(1.000000,0.561726),translate(-0.499995,-0.499921)" id="radialGradient-6">
            <stop stop-color="#F7941D" offset="0%"></stop>
            <stop stop-color="#FAA819" offset="23.04%"></stop>
            <stop stop-color="#FEC00F" offset="55.28%"></stop>
            <stop stop-color="#FFCF00" offset="82.09%"></stop>
            <stop stop-color="#FFD400" offset="100%"></stop>
        </radialGradient>
        <radialGradient cx="-80.7589867%" cy="46.5085496%" fx="-80.7589867%" fy="46.5085496%" r="199.740872%" gradientTransform="translate(-0.807590,0.465085),scale(1.000000,0.869234),translate(0.807590,-0.465085)" id="radialGradient-7">
            <stop stop-color="#EF4123" offset="0%"></stop>
            <stop stop-color="#EF4323" offset="42.02%"></stop>
            <stop stop-color="#F04A23" offset="57.16%"></stop>
            <stop stop-color="#F15623" offset="67.94%"></stop>
            <stop stop-color="#F26422" offset="76.67%"></stop>
            <stop stop-color="#F47621" offset="84.14%"></stop>
            <stop stop-color="#F6891F" offset="90.76%"></stop>
            <stop stop-color="#F99F1B" offset="96.59%"></stop>
            <stop stop-color="#FCAF17" offset="100%"></stop>
        </radialGradient>
        <radialGradient cx="40.7026122%" cy="23.908441%" fx="40.7026122%" fy="23.908441%" r="410.910918%" gradientTransform="translate(0.407026,0.239084),scale(1.000000,0.172163),translate(-0.407026,-0.239084)" id="radialGradient-8">
            <stop stop-color="#FFDA00" offset="0%"></stop>
            <stop stop-color="#FFC709" offset="34.78%"></stop>
            <stop stop-color="#FDB614" offset="75.07%"></stop>
            <stop stop-color="#FCAF17" offset="100%"></stop>
        </radialGradient>
        <radialGradient cx="23.0261629%" cy="41.3762299%" fx="23.0261629%" fy="41.3762299%" r="74.2803825%" gradientTransform="translate(0.230262,0.413762),scale(1.000000,0.868226),translate(-0.230262,-0.413762)" id="radialGradient-9">
            <stop stop-color="#D17FA1" offset="0%"></stop>
            <stop stop-color="#CA6992" offset="11.34%"></stop>
            <stop stop-color="#C34F83" offset="26.82%"></stop>
            <stop stop-color="#BD3778" offset="43.01%"></stop>
            <stop stop-color="#B92070" offset="59.97%"></stop>
            <stop stop-color="#B7096C" offset="78.2%"></stop>
            <stop stop-color="#B6006A" offset="100%"></stop>
        </radialGradient>
        <radialGradient cx="33.1864817%" cy="24.8535802%" fx="33.1864817%" fy="24.8535802%" r="76.561886%" gradientTransform="translate(0.331865,0.248536),scale(0.899659,1.000000),translate(-0.331865,-0.248536)" id="radialGradient-10">
            <stop stop-color="#B6006A" offset="0%"></stop>
            <stop stop-color="#A01B35" offset="100%"></stop>
        </radialGradient>
        <radialGradient cx="-1.47295933%" cy="19.2168933%" fx="-1.47295933%" fy="19.2168933%" r="149.827471%" gradientTransform="translate(-0.014730,0.192169),scale(0.722493,1.000000),translate(0.014730,-0.192169)" id="radialGradient-11">
            <stop stop-color="#FCAF17" offset="0%"></stop>
            <stop stop-color="#F8981D" offset="11.33%"></stop>
            <stop stop-color="#F6861F" offset="23.74%"></stop>
            <stop stop-color="#F47721" offset="37.37%"></stop>
            <stop stop-color="#F36C21" offset="52.64%"></stop>
            <stop stop-color="#F26522" offset="70.9%"></stop>
            <stop stop-color="#F26322" offset="100%"></stop>
        </radialGradient>
        <radialGradient cx="50.0125461%" cy="49.9974693%" fx="50.0125461%" fy="49.9974693%" r="113.873608%" gradientTransform="translate(0.500125,0.499975),scale(1.000000,0.326620),translate(-0.500125,-0.499975)" id="radialGradient-12">
            <stop stop-color="#FFC20E" offset="0%"></stop>
            <stop stop-color="#FFC906" offset="19.88%"></stop>
            <stop stop-color="#FFD800" offset="67.87%"></stop>
            <stop stop-color="#FFDD00" offset="100%"></stop>
        </radialGradient>
    </defs>
    <g id="✸-Styles" stroke="none" stroke-width="1" fill="none" fill-rule="evenodd">
        <g id="*Guides/Styles" transform="translate(-481.000000, -181.000000)">
            <g id="site-ftr-logo" transform="translate(481.000000, 180.000000)">
                <g id="Group" transform="translate(7.000000, 0.989247)">
                    <path d="M67.9259276,94.8348869 C62.3869231,97.0788235 56.3360633,98.3219005 50.0018552,98.3219005 C22.7044344,98.3219005 3.19909502,73.2866968 7.05628959,54.4988688 C10.3056561,38.7364706 28.4993665,22.9969231 53.1780995,28.9380995 C49.2112217,27.2928507 44.2434842,26.2371493 38.0189593,26.2371493 C23.600181,26.2371493 3.69723982,39.458552 3.49615385,58.7399548 C3.41846154,66.3355204 5.35162896,76.6091855 13.3082353,85.3701357 C16.6124434,88.7748869 20.3782353,91.7134842 24.5187783,94.0945249 C31.9863801,98.3767421 40.6376471,100.826335 49.860181,100.826335 C60.0150226,100.826335 67.738552,97.8283258 71.8471041,95.8540271 C73.830543,94.8942986 75.3523982,94.0031222 75.3523982,94.0031222 C72.9393665,94.5286878 70.4166516,94.8028959 67.9259276,94.8348869 Z" id="Path" fill="url(#radialGradient-1)" fill-rule="nonzero"></path>
                    <path d="M93.9939819,24.3908145 L93.9939819,24.3908145 C96.4847059,32.2423077 95.5341176,41.2866063 91.2976018,49.3437557 C92.111086,46.1949321 92.5589593,42.9090045 92.5726697,39.5088235 C92.6823529,20.9540724 80.1510407,5.28307692 63.0495928,0.635248869 C63.058733,0.648959276 63.0724434,0.667239819 63.0815837,0.680950226 C70.3892308,4.64782805 76.1613122,11.6949774 79.0999095,20.4833484 C80.498371,24.6695928 81.2615837,29.2442986 81.238733,34.070362 C81.1290498,51.0986878 71.3352489,65.3620814 58.0864253,69.5574661 C57.9904525,69.589457 54.4577376,70.8188235 49.8967421,70.8188235 L49.8921719,70.8188235 C49.8830317,70.8188235 49.8693213,70.8188235 49.860181,70.8188235 C43.9418552,70.8188235 38.6633484,68.1270136 35.148914,63.9133484 C35.1626244,63.9407692 35.180905,63.9544796 35.1991855,63.9773303 C48.1372398,79.4472398 70.7959729,82.7011765 87.87,71.1113122 C93.1439367,67.5328959 97.2890498,62.9079186 100.213937,57.7116742 C100.213937,57.7025339 100.213937,57.6933937 100.223077,57.6842534 C100.616109,55.1386878 100.821765,52.5337104 100.821765,49.8738914 C100.817195,40.5919457 98.3356109,31.8858371 93.9939819,24.3908145 Z" id="Path" fill="url(#radialGradient-2)" fill-rule="nonzero"></path>
                    <path d="M79.0999095,20.4833484 C78.9445249,20.2182805 78.6246154,19.6790045 78.6246154,19.6790045 C77.0113575,17.0100452 75.0553394,14.4919005 72.7657014,12.188552 C59.6996833,-0.950588235 39.7830317,-3.11683258 24.4547964,5.69438914 C36.1360633,2.18909502 50.1480995,5.66239819 60.5771493,16.1371493 C60.9793213,16.5393213 61.3677828,16.9460633 61.7471041,17.3528054 L61.7471041,17.3528054 C73.698009,30.3274208 75.8231222,48.4891403 67.2449774,60.5588688 C66.6508597,61.3906335 66.0064706,62.1949774 65.3163801,62.9764706 L65.2569683,63.0495928 C61.779095,67.7522624 56.1989593,70.800543 49.9013122,70.8142534 L49.9058824,70.8142534 C54.4668778,70.8142534 57.9995928,69.5848869 58.0955656,69.5528959 C71.339819,65.3575113 81.13819,51.0941176 81.2480549,34.0657919 C81.2615837,29.2397285 80.498371,24.6650226 79.0999095,20.4833484 Z" id="Path" fill="#FFD400" fill-rule="nonzero"></path>
                    <path d="M7.05628959,54.5034389 C10.3056561,38.7410407 28.4993665,23.0014932 53.1780995,28.9426697 C49.2112217,27.2974208 44.2434842,26.2417195 38.0189593,26.2417195 C23.600181,26.2417195 3.69723982,39.4631222 3.49615385,58.7445249 C3.41846154,66.3400905 5.35162896,76.6137557 13.3082353,85.3747059 C16.6124434,88.779457 20.3782353,91.7226244 24.5187783,94.099095 C22.6495928,92.4858371 20.9540724,90.6943439 19.459638,88.7611765 C17.7184163,86.5035294 16.260543,84.0447964 15.1225792,81.4306787 C8.47760181,73.1770136 5.27393665,63.1775566 7.05628959,54.5034389 Z" id="Path" fill="url(#radialGradient-3)" fill-rule="nonzero"></path>
                    <path d="M88.8388688,70.430362 C91.4575566,68.5337557 93.7746154,66.3720814 95.7946154,64.0230317 L95.7946154,64.0230317 C93.7791855,66.3720814 91.4575566,68.5337557 88.8388688,70.430362 Z" id="Path"></path>
                    <path d="M88.8388688,70.430362 C88.5189593,70.6588688 88.1944796,70.8873756 87.8654299,71.1113122 C88.1990498,70.8873756 88.5189593,70.6542986 88.8388688,70.430362 Z" id="Path" fill="url(#radialGradient-4)" fill-rule="nonzero"></path>
                    <path d="M88.8388688,70.430362 C88.5189593,70.6588688 88.1944796,70.8873756 87.8654299,71.1113122 C88.1990498,70.8873756 88.5189593,70.6542986 88.8388688,70.430362 Z" id="Path" fill="url(#radialGradient-5)" fill-rule="nonzero"></path>
                    <path d="M79.0999095,20.4833484 C78.9445249,20.2182805 78.6246154,19.6790045 78.6246154,19.6790045 C77.6466063,18.0703167 76.5497738,16.5164706 75.3249774,15.0266063 C76.0790498,16.4570588 76.7462896,17.9469231 77.331267,19.491629 C78.8714027,23.6230317 79.79,28.1748869 79.9316742,33.0055204 C80.4252489,50.0155656 71.1204525,64.6308597 58.0361538,69.2786878 C57.9767421,69.3015385 56.491448,69.8728054 54.2200905,70.3161086 C52.8307692,70.6405882 51.3866063,70.8142534 49.8967421,70.8233937 L49.8967421,70.8233937 C54.4577376,70.8233937 57.9904525,69.5940271 58.0864253,69.5620362 C71.3306787,65.3666516 81.1290498,51.1032579 81.238733,34.0749321 C81.2615837,29.2397285 80.498371,24.6650226 79.0999095,20.4833484 Z" id="Path" fill="url(#radialGradient-6)" fill-rule="nonzero"></path>
                    <path d="M95.7991855,64.0138914 C95.7946154,64.0230317 95.7946154,64.0230317 95.7946154,64.0230317 L95.7854751,64.0321719 C91.6860633,78.0487783 81.3255656,89.4009955 67.9304977,94.839457 C67.9213575,94.839457 67.9213575,94.839457 67.9213575,94.839457 C70.4120814,94.8074661 72.9347964,94.5332579 75.3523982,94.0168326 C88.441267,86.4486878 97.8328959,73.2318552 100.213937,57.6888235 L100.213937,57.6888235 C100.195656,57.7345249 97.7552036,61.8659276 95.7991855,64.0138914 Z" id="Path" fill="url(#radialGradient-7)" fill-rule="nonzero"></path>
                    <path d="M100.817195,49.8738914 C100.817195,40.5919457 98.3356109,31.8858371 93.9939819,24.3908145 L93.9939819,24.3908145 C95.0496833,27.7133032 95.4838462,31.241448 95.3193213,34.8152941 C96.8731674,39.8972851 97.7095023,45.2352036 97.7095023,50.6096833 C97.7095023,55.2666516 97.0422624,59.7682353 95.7946154,64.0230317 C97.7552036,61.8659276 100.218507,57.6842534 100.218507,57.6842534 C100.611538,55.1432579 100.817195,52.5337104 100.817195,49.8738914 Z" id="Path" fill="url(#radialGradient-8)" fill-rule="nonzero"></path>
                    <path d="M50.970724,90.9914027 C34.440543,82.8931222 26.4885068,64.30181 31.2460181,47.2140724 C33.2066063,39.0106787 40.4502715,32.8547059 49.1838009,32.5576471 L49.1792308,32.5576471 C49.4077376,32.5485068 49.6316742,32.5347964 49.8647511,32.5347964 C56.8799095,32.5347964 63.0176018,36.3234389 66.3446606,41.9538462 C65.3072398,40.0252489 64.0047511,38.2154751 62.5057466,36.5336652 C59.8459276,33.5493665 56.6514027,30.9946606 53.1780995,28.9426697 C28.4993665,22.9969231 10.3102262,38.7410407 7.05628959,54.5034389 C3.19909502,73.2866968 22.7044344,98.3264706 50.0018552,98.3264706 C56.3406335,98.3264706 62.3914932,97.0833937 67.9259276,94.839457 C62.2361086,94.8942986 56.4366063,93.6649321 50.970724,90.9914027 Z" id="Path" fill="url(#radialGradient-9)" fill-rule="nonzero"></path>
                    <path d="M53.1780995,28.9426697 C28.4993665,22.9969231 10.3102262,38.7410407 7.05628959,54.5034389 C5.27393665,63.1775566 8.47760181,73.1815837 15.1271493,81.4352489 C13.3265158,77.3221267 12.3302262,72.820543 12.3119457,68.0950226 C12.2525339,48.7404977 28.6867421,32.9461086 49.1563801,32.5485068 C49.1655204,32.5485068 49.1700905,32.5485068 49.1792308,32.5576471 C49.4077376,32.5485068 49.6316742,32.5347964 49.8647511,32.5347964 C56.8799095,32.5347964 63.0176018,36.3234389 66.3446606,41.9538462 C65.3072398,40.0252489 64.0047511,38.2154751 62.5057466,36.5336652 C59.8459276,33.5447964 56.6514027,30.9946606 53.1780995,28.9426697 Z" id="Path" fill="url(#radialGradient-10)" fill-rule="nonzero"></path>
                    <path d="M50.970724,90.9914027 C56.4366063,93.6695023 62.2361086,94.8988688 67.9259276,94.8348869 C81.3301357,89.4009955 91.6952036,78.0487783 95.7946154,64.0230317 C93.7746154,66.3720814 91.4575566,68.5337557 88.8388688,70.430362 C88.5189593,70.6588688 88.1944796,70.8873756 87.8654299,71.1113122 C70.7914027,82.7011765 48.1326697,79.4472398 35.1946154,63.9773303 C32.3976923,60.6594118 30.7158824,56.3680543 30.7158824,51.6836652 C30.7158824,50.1435294 30.9032579,48.6445249 31.241448,47.2140724 C26.4885068,64.2972398 34.440543,82.8931222 50.970724,90.9914027 Z" id="Path" fill="url(#radialGradient-11)" fill-rule="nonzero"></path>
                    <path d="M61.7425339,17.3528054 C60.8650679,16.7266968 59.960181,16.1417195 59.0370136,15.5933032 C53.0455656,12.0240271 46.0532579,9.9720362 38.5719457,9.9720362 C20.0171946,9.9720362 4.90375566,23.6778733 0.36561086,40.8021719 C0.36561086,40.8021719 10.8997738,26.2462896 28.6044796,23.56819 C36.5199548,22.3753846 45.5459729,24.4502262 53.1735294,28.9426697 C56.6514027,30.9946606 59.8413575,33.5493665 62.5011765,36.5336652 C64.0184615,38.2337557 65.3300905,40.06181 66.3675113,42.0086878 C68.0356109,44.8467421 68.9953394,48.1509502 68.9953394,51.6836652 C68.9953394,55.9019005 67.6197285,59.8230769 65.3026697,62.9810407 L65.3026697,62.9810407 C65.9927602,62.1995475 66.6417195,61.3952036 67.231267,60.5634389 C75.818552,48.4891403 73.6934389,30.3274208 61.7425339,17.3528054 Z" id="Path" fill="#FFDD00" fill-rule="nonzero"></path>
                    <path d="M61.7425339,17.3528054 C60.8650679,16.7266968 59.960181,16.1417195 59.0370136,15.5933032 C58.2235294,15.1088688 57.3871946,14.6472851 56.528009,14.2222624 C57.1358371,14.7158371 57.7345249,15.2231222 58.3286425,15.7532579 C58.7445249,16.1325792 59.1604072,16.5164706 59.558009,16.9095023 L59.558009,16.9095023 C72.1852941,29.221448 75.2747059,47.2460633 67.3546606,59.7545249 C67.1855656,60.0241629 67.0027602,60.2846606 66.8153846,60.5542986 C66.3675113,61.3997738 65.8693665,62.2132579 65.3072398,62.9810407 L65.3072398,62.9810407 C65.9973303,62.1995475 66.6462896,61.3952036 67.2358371,60.5634389 C75.818552,48.4891403 73.6934389,30.3274208 61.7425339,17.3528054 Z" id="Path" fill="url(#radialGradient-12)" fill-rule="nonzero"></path>
                </g>
                <g id="Group" transform="translate(0.000000, 104.989247)" fill="#FFFFFF" fill-rule="nonzero">
                    <path d="M34.0319522,27.0555405 L32.0607968,2.03797297 C32.0199203,1.50283784 31.6020717,1.06581081 31.0615936,0.99 C31.0070916,0.981081081 30.9525896,0.976621622 30.8935458,0.967702703 C30.2803984,0.891891892 29.6309163,0.851756757 28.9587251,0.851756757 C28.1502789,0.851756757 27.4235857,1.05243243 26.7968127,1.45378378 C26.1700398,1.85513514 25.6386454,2.52851351 25.2071713,3.465 L17.2226295,20.8524324 L9.29258964,3.27324324 C8.95649402,2.54189189 8.50685259,1.93986486 7.96183267,1.49391892 C7.44406375,1.07027027 6.53569721,0.851756757 5.26398406,0.851756757 C3.84693227,0.851756757 2.67513944,0.972162162 1.66685259,1.27540541 C1.27171315,1.39135135 1.13091633,1.87743243 1.40342629,2.18513514 C1.96661355,2.81391892 2.40262948,3.72364865 2.2936255,5.04810811 L0.295219124,31.2741892 C0.254342629,31.8004054 0.676733068,32.2463514 1.21266932,32.2463514 L1.61689243,32.2463514 C4.01952191,32.2463514 6.02247012,30.3867568 6.1859761,28.0143243 L7.42589641,10.6893243 L15.5103586,27.7333784 C15.8010359,28.3487838 16.4232669,28.7322973 17.1363347,28.7322973 C17.8494024,28.7322973 18.4761753,28.3487838 18.7668526,27.7289189 L27.060239,10.065 L28.3773705,27.7868919 C28.554502,30.2841892 30.6755378,32.2463514 33.2053386,32.2463514 L35.285498,32.2463514 C35.7442231,32.2463514 35.9985657,31.7201351 35.7078884,31.3722973 C34.8358566,30.1414865 34.1909163,28.6564865 34.0319522,27.0555405 Z" id="Path"></path>
                    <path d="M100.351793,12.1341892 C99.4888446,11.0728378 98.3352191,10.2210811 96.9317928,9.5922973 C95.5192829,8.96351351 93.7843028,8.64243243 91.7677291,8.64243243 C89.8510757,8.64243243 88.1569721,8.95905405 86.7262948,9.5922973 C85.3001594,10.2210811 84.1056574,11.0862162 83.1745817,12.1654054 C82.2389641,13.2535135 81.5213546,14.5333784 81.0444622,15.9648649 C80.5630279,17.4097297 80.3223108,18.9660811 80.3223108,20.5848649 C80.3223108,22.1813514 80.5357769,23.7287838 80.9536255,25.1736486 C81.3669323,26.6051351 82.025498,27.885 82.9111554,28.9641892 C83.7922709,30.0433784 84.9549801,30.9174324 86.3584064,31.5595946 C87.7663745,32.2017568 89.5195219,32.5317568 91.5678884,32.5317568 C93.6117131,32.5317568 95.3739442,32.1972973 96.8000797,31.5372973 C98.2262151,30.8772973 99.4025498,29.9854054 100.301833,28.8928378 C101.201116,27.7958108 101.859681,26.5025676 102.259363,25.0577027 C102.663586,23.5905405 102.863426,22.0341892 102.863426,20.4377027 C102.863426,18.8412162 102.659044,17.3071622 102.259363,15.8712162 C101.859681,14.462027 101.219283,13.2 100.351793,12.1341892 Z M96.7274104,23.2605405 C96.5866135,24.1836486 96.3231873,25.0309459 95.9416733,25.7756757 C95.5465339,26.5427027 94.9878884,27.167027 94.2884462,27.6308108 C93.5753785,28.1035135 92.6715538,28.3398649 91.5996813,28.3398649 C90.5596016,28.3398649 89.6739442,28.0990541 88.9608765,27.6308108 C88.2568924,27.167027 87.698247,26.5427027 87.3076494,25.7801351 C86.9261355,25.0443243 86.6536255,24.197027 86.4992032,23.2739189 C86.3493227,22.3686486 86.2675697,21.4544595 86.2675697,20.5491892 C86.2675697,19.6439189 86.3538645,18.7386486 86.5219124,17.8645946 C86.694502,16.9727027 86.9851793,16.1610811 87.3894024,15.452027 C87.8027092,14.7251351 88.3658964,14.1231081 89.0607968,13.6637838 C89.7738645,13.1910811 90.6640637,12.9547297 91.6996016,12.9547297 C92.7396813,12.9547297 93.616255,13.1866216 94.3156972,13.637027 C94.9969721,14.082973 95.5465339,14.6716216 95.9416733,15.3806757 C96.3277291,16.0763514 96.5956972,16.8924324 96.7319522,17.8066216 C96.8682072,18.6940541 96.9363347,19.5993243 96.9363347,20.5001351 C96.927251,21.4232432 96.8591235,22.3552703 96.7274104,23.2605405 Z" id="Shape"></path>
                    <path d="M111.860797,26.9351351 L111.860797,3.51851351 C111.860797,2.76932432 111.742709,2.16283784 111.511076,1.71243243 C111.279442,1.27094595 110.975139,0.923108108 110.611793,0.686756757 C110.225737,0.437027027 109.789721,0.267567568 109.317371,0.178378378 C108.813227,0.0847297297 108.304542,0.0356756757 107.80494,0.0356756757 L106.991952,0.0356756757 C106.406056,0.0356756757 105.929163,0.503918919 105.929163,1.07918919 L105.929163,28.9017568 C105.929163,29.6643243 106.033625,30.2886486 106.24255,30.7568919 C106.446932,31.2162162 106.723984,31.5863514 107.064622,31.8539189 C107.414343,32.1304054 107.809482,32.3132432 108.268207,32.4158108 C108.749641,32.5228378 109.262869,32.5763514 109.794263,32.5763514 C110.893386,32.5763514 112.037928,32.4782432 113.037131,32.2597297 C113.663904,32.1214865 113.863745,31.3321622 113.359602,30.9352703 C112.369482,30.1548649 111.860797,28.7858108 111.860797,26.9351351 Z" id="Path"></path>
                    <path d="M80.8718725,31.292027 L80.5630279,30.9977027 C80.0861355,30.5472973 79.4593625,29.922973 78.7780876,29.1336486 C78.1195219,28.3755405 77.6244622,27.7155405 77.1339442,27.0287838 C77.1339442,27.0287838 73.2960956,20.9995946 73.2960956,20.9995946 L73.1552988,20.7766216 L73.3051793,20.5581081 C73.3051793,20.5581081 78.496494,12.812027 80.3631873,10.0337838 C80.6175299,9.65472973 80.3404781,9.15527027 79.8772112,9.15527027 L79.1777689,9.15527027 L77.6789641,9.15081081 C76.4844622,9.15081081 75.6033466,9.36932432 74.9901992,9.81527027 C74.3407171,10.2924324 73.7048606,11.0237838 73.1098805,11.9914865 L70.0532271,16.9236486 L67.1646215,11.6927027 C66.7286056,10.8944595 66.2062948,10.2567568 65.6113147,9.80635135 C65.0435857,9.37378378 64.2305976,9.15081081 63.2041434,9.15081081 L60.5607968,9.15081081 C60.0521116,9.15081081 59.7432669,9.69932432 60.0066932,10.122973 L66.5423904,20.5491892 L61.0149801,28.5583784 C60.5471713,29.2763514 60.14749,29.7981081 59.7932271,30.1771622 C59.143745,30.8639189 57.9901195,30.582973 57.7176096,29.6866216 C57.5586454,29.1559459 57.4541833,28.4424324 57.4541833,27.4791892 L57.4541833,17.2402703 C57.4541833,15.7775676 57.2906773,14.4843243 56.972749,13.3917568 C56.6639044,12.3348649 56.1370518,11.442973 55.4149004,10.7383784 C54.6882072,10.0337838 53.7253386,9.50310811 52.5535458,9.16418919 C51.354502,8.81635135 49.8647809,8.63797297 48.1207171,8.63797297 C45.8679681,8.63797297 43.5834263,9.00364865 41.4669323,9.80189189 C40.4858964,10.1675676 39.6956175,10.4440541 38.8871713,11.1174324 C38.4738645,11.4608108 38.2649402,11.7997297 38.2649402,12.1297297 C38.2649402,12.317027 38.3330677,12.705 38.6555378,13.4764865 C38.7554582,13.7172973 38.869004,13.9536486 38.9961753,14.1810811 C39.2459761,14.627027 39.818247,14.7786486 40.2769721,14.5422973 C41.0263745,14.1632432 41.5713944,13.9313514 42.3480478,13.5924324 C43.7287649,12.9904054 45.2411952,12.5890541 46.767251,12.5444595 C48.0571315,12.5043243 49.5877291,12.6068919 50.6368924,13.4274324 C51.4180876,14.0383784 51.8132271,15.0506757 51.8132271,16.4375676 L51.8132271,17.7441892 L50.3325896,17.7441892 C49.9601594,17.7441892 49.5831873,17.762027 49.1880478,17.7932432 C48.0117131,17.8601351 46.7036653,18.0072973 45.3047809,18.2302703 C43.9286056,18.4532432 42.6296414,18.8590541 41.4442231,19.4432432 C40.2815139,20.0185135 39.3004781,20.8122973 38.5283665,21.8067568 C37.7789641,22.7744595 37.3974502,24.0587838 37.3974502,25.6285135 C37.3974502,26.8994595 37.6154582,27.9875676 38.0514741,28.8571622 C38.48749,29.7267568 39.0461355,30.4313514 39.7228685,30.9486486 C40.4041434,31.4704054 41.176255,31.8494595 42.016494,32.0813514 C42.8703586,32.3177027 43.7378486,32.4336486 44.5917131,32.4336486 C46.2494821,32.4336486 47.661992,32.1794595 48.7974502,31.68 C49.9374502,31.1805405 50.8639841,30.5651351 51.5498008,29.8516216 L52.1175299,29.262973 C52.1356972,29.6643243 52.2265339,30.0433784 52.3809562,30.3912162 C52.4808765,30.6587838 52.6262151,30.8951351 52.8169721,31.0958108 C53.4074104,31.8182432 54.3066932,32.2775676 55.3240637,32.2775676 L57.9674104,32.2775676 L59.4071713,32.2775676 L61.2148207,32.2775676 C63.2404781,32.2775676 65.1389641,31.3633784 66.3834263,29.8293243 C66.5333068,29.6598649 66.6741036,29.477027 66.7967331,29.2852703 L69.6626295,24.6741892 L72.2650996,28.7635135 C74.5178486,31.8583784 74.6223108,32.2731081 78.8689243,32.2731081 L80.4721912,32.2731081 C80.9899602,32.282027 81.2488446,31.6532432 80.8718725,31.292027 Z M51.9086056,25.8068919 C51.9086056,26.1681081 51.7587251,26.5337838 51.4453386,26.9217568 C51.1682869,27.2695946 50.7913147,27.5906757 50.3189641,27.8805405 C49.860239,28.1614865 49.3243028,28.3933784 48.7293227,28.5672973 C48.1298008,28.7412162 47.4894024,28.8304054 46.821753,28.8304054 C45.436494,28.8304054 44.4282072,28.4558108 43.8196016,27.72 C43.2291633,27.0109459 42.9294024,26.1368919 42.9294024,25.1245946 C42.9294024,24.2148649 43.156494,23.4567568 43.6106773,22.8591892 C44.0421514,22.2883784 44.6098805,21.8156757 45.2911554,21.4633784 C45.9588048,21.1155405 46.7263745,20.8702703 47.580239,20.732027 C48.3977689,20.5982432 49.238008,20.5001351 50.050996,20.4332432 C50.3098805,20.3975676 50.5596813,20.3797297 50.8049402,20.3797297 L51.9131474,20.3797297 L51.9131474,25.8068919 L51.9086056,25.8068919 Z" id="Shape"></path>
                </g>
            </g>
        </g>
    </g>
</svg>